<svg width="42" height="42" viewBox="0 0 42 42" fill="none" xmlns="http://www.w3.org/2000/svg">
<circle cx="21" cy="21" r="21" fill="#00965E"/>
<ellipse cx="14.5" cy="16.5" rx="2.5" ry="3.5" fill="white"/>
<ellipse cx="27.5" cy="16.5" rx="2.5" ry="3.5" fill="white"/>
<path d="M31.4881 24.5C31.3641 27.1028 30.2756 29.5737 28.4246 31.4246C26.4555 33.3938 23.7848 34.5 21 34.5C18.2152 34.5 15.5445 33.3938 13.5754 31.4246C11.7244 29.5737 10.6359 27.1028 10.5119 24.5H13.9176C14.0376 26.2003 14.7664 27.8073 15.9795 29.0205C17.311 30.352 19.117 31.1 21 31.1C22.883 31.1 24.689 30.352 26.0205 29.0205C27.2336 27.8073 27.9624 26.2003 28.0824 24.5H31.4881Z" fill="white" stroke="#00965E"/>
<rect x="11" y="24" width="20" height="2" fill="#00965E"/>
</svg>
