<svg width="42" height="42" viewBox="0 0 42 42" fill="none" xmlns="http://www.w3.org/2000/svg">
<circle cx="21" cy="21" r="21" fill="#EB6625"/>
<path d="M10.5119 34.5C10.6359 31.8972 11.7244 29.4263 13.5754 27.5754C15.5445 25.6062 18.2152 24.5 21 24.5C23.7848 24.5 26.4555 25.6062 28.4246 27.5754C30.2756 29.4263 31.3641 31.8972 31.4881 34.5L28.0824 34.5C27.9624 32.7997 27.2336 31.1927 26.0205 29.9795C24.689 28.648 22.883 27.9 21 27.9C19.117 27.9 17.3111 28.648 15.9795 29.9795C14.7664 31.1927 14.0376 32.7997 13.9176 34.5L10.5119 34.5Z" fill="white" stroke="#EB6625"/>
<rect x="11" y="31" width="20" height="4" fill="#EB6625"/>
<ellipse cx="14.5" cy="16.5" rx="2.5" ry="3.5" fill="white"/>
<ellipse cx="27.5" cy="16.5" rx="2.5" ry="3.5" fill="white"/>
</svg>
