<svg id="Layer_1" data-name="Layer 1" xmlns="http://www.w3.org/2000/svg" xmlns:xlink="http://www.w3.org/1999/xlink" viewBox="0 0 994 220"><defs><style>.cls-1{fill:none;}.cls-2{clip-path:url(#clip-path);}.cls-3{clip-path:url(#clip-path-2);}.cls-4{fill:#00adc6;}.cls-5{fill:#104067;}</style><clipPath id="clip-path"><rect class="cls-1" x="5.57" y="3.98" width="982.43" height="211.17"/></clipPath><clipPath id="clip-path-2"><rect class="cls-1" x="5.57" y="3.98" width="982.43" height="211.17"/></clipPath></defs><title>forbrukerradet_logo</title><g id="Artwork_3" data-name="Artwork 3"><g class="cls-2"><g class="cls-3"><path class="cls-4" d="M113.43,82.89v66.75h39.4a8,8,0,0,0,8-8V82.89Z"/><path class="cls-4" d="M204.67,4H144.23c-16.38,0-30.8,9.89-30.8,30.63V70.72h91.23a8,8,0,0,0,8-8V11.94a8,8,0,0,0-8-8"/><path class="cls-4" d="M111.24,4C88.32,4,19.35,23.61,18.41,23.85A17.22,17.22,0,0,0,7.65,48.72l2,3.69,87.13,161a3.27,3.27,0,0,0,2.88,1.71,3.78,3.78,0,0,0,.81-.09,3.28,3.28,0,0,0,2.47-3.18V34.6c0-17.7,6-25.7,17.79-30.63Z"/><path class="cls-5" d="M227.65,143.83h13.21V120.26h20.28V107.32H240.87V93.41h29.54V80.65H232.27a4.62,4.62,0,0,0-4.62,4.61Z"/><path class="cls-5" d="M326.09,100.37V124.1c0,28-51.76,28.11-51.76,0V100.37c0-28.21,51.76-28,51.76,0M287.35,124.1c-.07,10.62,25.62,10.53,25.62,0V100.37c.09-10.89-25.62-10.63-25.62,0Z"/><path class="cls-5" d="M397.18,143.83a4.61,4.61,0,0,1-4.62-4.63V80.55h25c10.89,0,19.81,6.34,19.81,18.56,0,3.57-1.68,8.67-6,11.08,7.86,3.82,9.36,11.23,8.47,17.57-1.15,8.49-7.3,16.06-21.87,16.06Zm20.36-38.46c8.94,0,10-12,0-12H405.68v12Zm-11.87,11.23v14.47h11.87c12.33,0,12.49-14.47,0-14.47Z"/><path class="cls-5" d="M517.94,80.65v42.48c0,11.87,23.19,11.77,23.19,0V80.65h13.19v42.48c-.07,28.83-49.6,28.91-49.6,0V80.65Z"/><path class="cls-5" d="M605.63,80.65h11.91l-26.93,30.19,27,33H601.16l-22.88-29.13v29.13h-13V80.65h13V107L599.11,84c2-2.17,3.75-3.39,6.52-3.39"/><polygon class="cls-5" points="665.58 93.41 635.97 93.41 635.97 105.81 657.58 105.81 657.58 118.58 635.97 118.58 635.97 131.06 665.58 131.06 665.58 143.83 622.75 143.83 622.75 80.55 665.58 80.55 665.58 93.41"/><path class="cls-5" d="M802.19,80.65h7.67l22.86,63.18h-5.54l-7.58-21.07H792.46l-7.41,21.07h-5.52Zm15.53,36.85L806,84.58,794.33,117.5Z"/><path class="cls-5" d="M858.48,80.65H839.1v63.15h19.38c15.41,0,23.9-8.1,23.9-22.82V103.49c0-14.72-8.49-22.84-23.9-22.84M877.1,121c0,11.65-6.25,17.56-18.62,17.56H844.31V85.92h14.16c12.37,0,18.62,5.9,18.62,17.57Z"/><polygon class="cls-5" points="933.22 85.82 898.87 85.82 898.87 109.54 922.82 109.54 922.82 114.9 898.87 114.9 898.87 138.56 933.22 138.56 933.22 143.83 893.61 143.83 893.61 80.55 933.22 80.55 933.22 85.82"/><polygon class="cls-5" points="988 80.55 988 85.82 966.67 85.82 966.67 143.83 961.42 143.83 961.42 85.82 940.08 85.82 940.08 80.55 988 80.55"/><path class="cls-5" d="M806.12,66.41A8.48,8.48,0,1,0,814.33,75a8.52,8.52,0,0,0-8.21-8.57m-.09,13A4.4,4.4,0,0,1,801.66,75,4.5,4.5,0,0,1,806,70.34a4.56,4.56,0,0,1,0,9.1"/><path class="cls-5" d="M710.84,143.83h15.89l-18.83-24c9.09-1.79,14.36-7.41,14.36-19-.36-14.36-9.91-20.16-22.57-20.16H674.8v63.18H688V114.69ZM688,93.85H699.7c5.51-.18,9.44,1.7,9.44,7.06v2.78c0,5.45-3.7,7.73-9.44,7.73H688Z"/><path class="cls-5" d="M775.9,98.93v-.35c-.25-11.63-7.77-18-21.15-18H733.22v63.28h5.26V85.91l0,0h17c5.3,0,9.25,1.23,11.73,3.67,2.16,2.11,3.24,5.14,3.24,9v.35c0,8.79-4.86,12.71-15.64,12.71H744.28l25,32.19h6.34L754,116.55h.81c13.35,0,21-6.43,21.08-17.62"/><path class="cls-5" d="M485,143.83h15.9l-18.84-24c9.09-1.79,14.37-7.41,14.37-19-.35-14.36-9.9-20.16-22.59-20.16H448.95v63.18H462.1V114.69Zm-22.84-50h11.68c5.54-.18,9.47,1.7,9.47,7.06v2.78c0,5.45-3.7,7.73-9.47,7.73H462.15Z"/><path class="cls-5" d="M370.78,143.83h15.91l-18.85-24c9.1-1.79,14.37-7.41,14.37-19-.36-14.36-9.92-20.16-22.57-20.16h-24.9v63.18h13.17V114.69Zm-22.83-50h11.7c5.52-.18,9.45,1.7,9.45,7.06v2.78c0,5.45-3.69,7.73-9.45,7.73h-11.7Z"/></g></g></g></svg>